<svg height="1024pt" preserveAspectRatio="xMidYMid meet" viewBox="0 0 1024 1024" width="1024pt" xmlns="http://www.w3.org/2000/svg"><g transform="matrix(.1 0 0 -.1 0 1024)"><path d="m2572 8999c-330-25-621-157-871-395-248-236-393-524-431-854-8-67-10-863-8-2665l4-2570 22-100c33-140 55-204 117-330 69-144 158-267 275-385 262-264 556-397 930-420 95-6 1105-9 2620-7 2325 2 2470 4 2560 21 436 82 805 350 1028 746 68 122 131 312 152 460 7 51 11 883 10 2652 0 2831 4 2641-61 2853-151 495-592 879-1129 981-90 18-227 19-2605 20-1380 1-2556-2-2613-7zm5101-410c235-35 444-144 612-320 131-139 209-279 268-489l22-75 5-2075c5-2025 6-2076 25-2135 29-90 28-329-2-440-18-66-23-115-26-280-4-165-9-215-27-284-116-440-457-747-883-796l-58-7-148 144c-82 79-148 146-147 150 1 3 242 250 536 548 294 299 547 561 563 584 50 76 70 143 71 241 0 81-3 97-31 157-18 37-53 90-79 118-53 57-160 115-229 126-25 3-45 7-45 9 0 1 7 16 15 33 44 87 40 231-9 337-29 64-114 153-174 184-95 48-212 63-309 38l-51-13-4 68c-10 140-115 278-249 329-53 20-82 24-169 24-98 0-110-3-180-34-74-34-89-48-813-770-805-804-774-768-741-850 22-55 71-85 126-78 39 5 81 45 777 741 514 514 747 740 773 751 67 27 129 16 182-33 54-51 69-120 41-190-11-25-136-158-383-407-622-625-674-682-716-766-48-99-64-201-48-312 23-160 105-278 239-344 65-32 86-37 162-41 47-2 104 1 126 7 21 6 40 9 41 8s-3-26-9-54c-6-29-8-56-4-60 33-33 229 140 761 672 334 334 495 488 521 499 92 39 179 5 226-86 22-43 24-84 6-127-7-17-287-308-625-650-336-340-617-632-623-647-21-57-4-90 102-199 54-56 99-105 99-109 0-3-1047-5-2327-4l-2328 3-92 27c-393 116-672 413-769 818-17 71-19 208-22 2565-2 1742 0 2515 8 2573 49 373 290 696 631 843 98 43 144 56 249 74 99 17 5020 21 5133 4zm100-4470c73-20 137-98 137-167 0-73-34-111-612-688-611-610-600-600-708-598-93 1-180 83-180 169 0 41 29 96 63 120 12 9 265 257 562 553s554 550 571 566c28 24 92 54 119 56 6 0 27-5 48-11z"/><path d="m5203 7861c-46-22-129-129-184-239-43-85-38-143 24-262 24-47 316-562 649-1145 553-966 678-1185 822-1432 27-45 57-85 67-88 13-4 48 15 114 63 96 68 148 98 258 146 34 16 57 32 57 41s-33 73-74 143-246 429-456 797c-1001 1751-1113 1946-1139 1964-42 30-90 34-138 12z"/><path d="m4450 7859c-31-13-87-66-105-99-21-42-28-107-15-159 18-74 65-121 203-203 67-39 173-102 236-139 122-74 152-82 195-48 49 38 39 70-99 319-134 245-166 290-225 320-43 22-145 27-190 9z"/><path d="m4189 6995c-32-17-30-15-175-266-64-112-202-350-307-529s-246-422-315-540-223-379-342-580c-385-648-380-637-345-687 9-12 93-68 187-124 195-115 239-129 280-88 13 13 63 92 112 174 49 83 166 281 261 440 94 160 220 373 280 475 59 102 129 221 155 265s156 267 289 495c134 228 274 468 313 533 83 139 92 178 54 223-35 43-354 224-392 224-16-1-41-7-55-15z"/><path d="m2136 5804-26-27v-301c0-290 1-303 20-324 11-12 31-24 43-27s190-4 396-3l375 3 94 160c52 88 144 243 203 344 60 101 109 187 109 192s-258 9-594 9h-593z"/><path d="m4267 5793c-13-21-62-103-109-183s-131-221-186-315l-100-170 1151-3c632-1 1152 0 1155 2 4 4-63 122-318 564l-82 142h-744-744z"/><path d="m6670 5823c1-5 90-163 199-353l198-345 502-3 502-2 30 29 29 29v297 297l-29 29-29 29h-701c-386 0-701-3-701-7z"/><path d="m2586 4228c-8-13-67-195-132-405-102-332-116-386-106-408 27-58 46-44 353 262 159 158 292 295 295 306 12 37-5 65-59 95-28 16-108 61-176 100-68 40-132 72-142 72s-25-10-33-22z"/><path d="m2297 3204c-4-4-7-119-7-256v-248h60 60l-2 253-3 252-50 3c-28 2-54 0-58-4z"/><path d="m2540 3085v-125h55 55v125 125h-55-55z"/><path d="m2790 3085v-125h55 55v125 125h-55-55z"/><path d="m3040 3085v-125h60 60v125 125h-60-60z"/><path d="m3300 3163c-1-27-2-140-3-253l-2-205 58-3 57-3v256 255h-55-55z"/><path d="m3550 3085v-125h55 55v125 125h-55-55z"/><path d="m3800 3085v-125h55 55v125 125h-55-55z"/><path d="m4050 3085v-125h55 55v125 125h-55-55z"/><path d="m4307 3204c-4-4-7-119-7-256v-249l58 3 57 3v250 250l-50 3c-28 2-54 0-58-4z"/><path d="m4557 3204c-4-4-7-61-7-126v-118h60 61l-3 123-3 122-50 3c-28 2-54 0-58-4z"/><path d="m4807 3203c-4-3-7-60-7-125v-118h60 60v125 125h-53c-30 0-57-3-60-7z"/></g></svg>